<!DOCTYPE svg PUBLIC "-//W3C//DTD SVG 1.1//EN" "http://www.w3.org/Graphics/SVG/1.1/DTD/svg11.dtd">
<!-- Uploaded to: SVG Repo, www.svgrepo.com, Transformed by: SVG Repo Mixer Tools -->
<svg width="800px" height="800px" viewBox="0 0 192 192" xmlns="http://www.w3.org/2000/svg" fill="none">
<g id="SVGRepo_bgCarrier" stroke-width="0"/>
<g id="SVGRepo_tracerCarrier" stroke-linecap="round" stroke-linejoin="round"/>
<g id="SVGRepo_iconCarrier"> <g clip-path="url(#a)"> <path stroke="#66FCF1" stroke-linecap="round" stroke-linejoin="round" stroke-width="12" d="M96 22v30m24-30v36m-42 76v24a11.998 11.998 0 0 0 12 12h12c3.183 0 6.235-1.264 8.485-3.515A11.996 11.996 0 0 0 114 158v-24M48 96v20a11.998 11.998 0 0 0 12 12h72c3.183 0 6.235-1.264 8.485-3.515A11.996 11.996 0 0 0 144 116V96.149L48 96Zm0 0V46a24 24 0 0 1 24-24h72v74H48Z"/> </g> <defs> <clipPath id="a"> <path fill="#ffffff" d="M0 0h192v192H0z"/> </clipPath> </defs> </g>
</svg>